<svg width="48" version="1.1" xmlns="http://www.w3.org/2000/svg" height="48">
<path style="fill:#f0d70f;stroke:#f0d70f;stroke-linejoin:round;stroke-linecap:round;stroke-width:2.5" d="M 3,7 22,18 V 41 L 6,29 Z"/>
<path style="opacity:.4;fill:#fff;stroke-width:.356" d="m 6.3823,20.597 c 0.215353,-1.70539 0.014316,-2.07475 1.45259,-1.35187 l 1.1603,.5832 c 0.366511,-0.723046 0.942881,-1.31353 1.57802,-1.69845 l -.3088,-1.3976 c -0.467889,-2.11775 0.137239,-2.01728 1.49746,-1.89082 1.40935,0.09563 1.72619,0.0256 2.11155,1.84958 l .2841,1.3446 c 0.124984,0.06959 0.290071,0.145791 0.415052,0.215376 0.495263,0.228607 0.964419,0.599817 1.39347,0.964408 l .7853,-.6784 c 1.06052,-0.916231 1.55449,-0.102749 2.47158,1.23672 1.09406,1.56915 1.27624,1.56935 0.100934,2.61549 l -.8207,.7215 c 0.211746,0.573593 0.347945,1.18369 0.408599,1.83029 l 1.1603,.5832 c 1.4907,0.749223 1.09546,1.01225 0.867978,2.51819 -0.215344,1.7054 -0.01432,2.07475 -1.45259,1.35187 l -1.1603,-.5832 c -0.36651,0.723046 -0.942881,1.31353 -1.57802,1.69845 l .4309,1.3392 c 0.602447,1.8723 -0.361491,1.45422 -1.63021,1.45009 -1.41259,0.0014 -1.71557,0.473537 -2.10093,-1.35044 l -.2841,-1.3446 c -0.124982,-0.06959 -0.29007,-0.145791 -0.415052,-0.215375 -0.495265,-0.228609 -0.964421,-0.599818 -1.39347,-0.964409 l -.7853,.6784 c -0.9207,1.11161 -1.17217,0.113369 -2.08926,-1.2261 -1.09406,-1.56915 -1.6798,-1.87733 -0.610688,-2.81727 l .9482,-.5304 c -0.211744,-0.573592 -0.347944,-1.18369 -0.408599,-1.83029 l -1.1603,-.5832 c -1.4907,-0.749223 -1.09546,-1.01226 -0.867977,-2.51819 z  m 7.0014,6.0274 c 1.16028,0.583158 2.2888,-0.01418 2.51911,-1.34732 0.230312,-1.33314 -0.591455,-2.93778 -1.7564,-3.57068 -1.16028,-0.583158 -2.2888,0.01418 -2.51911,1.34733 -0.190203,1.33976 0.591455,2.93777 1.7564,3.57067 z "/>
<path style="fill:#d02f90;stroke:#d02f90;stroke-linejoin:round;stroke-linecap:round;stroke-width:2.5" d="M 45,7 26,18 V 41 L 42,29 Z"/>
<g style="stroke-width:.356">
<path style="opacity:.3;fill:#fff" d="m 42.3422,20.8185 c -0.186923,-1.7088 -0.07144,-2.74792 -1.44671,-1.90102 l -1.1366,1.0378 c -0.339987,-0.735919 -0.894523,-1.34699 -1.51526,-1.75476 l .3594,-1.3855 c 0.493887,-1.90389 0.295919,-2.13801 -1.37841,-1.83628 -1.41165,-0.05274 -1.7754,-0.144998 -2.22684,1.66382 l -.3328,1.3334 c -0.127435,0.065 -0.29519,0.135151 -0.422623,0.200147 -0.503264,0.210454 -0.985623,0.564371 -1.42766,0.913132 l -.7601,-.7066 c -1.02653,-0.954219 -1.38828,-0.39899 -2.3535,0.906292 -1.62552,1.45104 -1.39173,1.87173 -0.357468,2.84996 l .794,.7509 c -0.23247,0.565532 -0.390769,1.17029 -0.474897,1.81428 l -1.1808,.5406 c -1.517,0.694546 -1.06529,0.916541 -1.11368,2.39665 0.153195,1.71216 0.09354,2.16235 1.5572,1.49223 l 1.1808,-.5406 c 0.339987,0.735918 0.894524,1.34699 1.51526,1.75476 l -.6577,1.3965 c -0.493888,1.90388 0.486767,1.39258 1.75484,1.4346 1.41165,0.05274 1.69727,0.535623 2.14871,-1.2732 l .3328,-1.3334 c 0.127434,-0.065 0.295189,-0.135151 0.422622,-0.200146 0.503267,-0.210457 0.985627,-0.564372 1.42766,-0.913133 l .7601,.7066 c 0.879699,1.14439 1.16732,0.155922 2.13253,-1.14936 1.15043,-1.52838 1.69785,-1.88289 0.65578,-2.82597 l -.8713,-.5318 c 0.232469,-0.565531 0.390768,-1.17029 0.474897,-1.81428 l 1.1808,-.5406 c 1.517,-0.694546 1.08233,-1.35762 0.959,-2.48504 z  m -7.2162,5.769 c -1.18076,0.540601 -2.28684,-0.0974 -2.46853,-1.43808 -0.18169,-1.34068 0.69791,-2.91442 1.88514,-3.50456 1.18076,-0.5406 2.28684,0.0974 2.46853,1.43808 0.141365,1.34583 -0.69791,2.91442 -1.88514,3.50456 z "/>
<path style="fill:#f2e65a" d="m 42.1419,20.3185 c -0.153205,-1.71215 0.06114,-2.07396 -1.40252,-1.40384 l -1.1808,.5406 c -0.339987,-0.735919 -0.894523,-1.34699 -1.51526,-1.75476 l .3594,-1.3855 c 0.493887,-1.90389 -0.188456,-1.40364 -1.45653,-1.44565 -1.41165,-0.05274 -1.69727,-0.535623 -2.14871,1.2732 l -.3328,1.3334 c -0.127435,0.065 -0.29519,0.135151 -0.422623,0.200147 -0.503264,0.210454 -0.985623,0.564371 -1.42766,0.913132 l -.7601,-.7066 c -1.02653,-0.954219 -1.16731,-0.155922 -2.13253,1.14936 -1.15043,1.52838 -1.6127,1.62866 -0.578439,2.60689 l .794,.7509 c -0.23247,0.565532 -0.390769,1.17029 -0.474897,1.81428 l -1.1808,.5406 c -1.517,0.694546 -1.13158,0.971784 -0.959,2.48504 0.153195,1.71216 -0.06114,2.07396 1.40252,1.40384 l 1.1808,-.5406 c 0.339987,0.735918 0.894524,1.34699 1.51526,1.75476 l -.3594,1.3855 c -0.493888,1.90388 0.188456,1.40363 1.45653,1.44565 1.41165,0.05274 1.69727,0.535623 2.14871,-1.2732 l .3328,-1.3334 c 0.127434,-0.065 0.295189,-0.135151 0.422622,-0.200146 0.503267,-0.210457 0.985627,-0.564372 1.42766,-0.913133 l .7601,.7066 c 0.879699,1.14439 1.16732,0.155922 2.13253,-1.14936 1.15043,-1.52838 1.6127,-1.62866 0.57844,-2.60689 l -.794,-.7509 c 0.232469,-0.565531 0.390768,-1.17029 0.474897,-1.81428 l 1.1808,-.5406 c 1.517,-0.694546 1.13158,-0.971785 0.959001,-2.48504 z  m -7.2162,5.769 c -1.18076,0.540601 -2.28684,-0.0974 -2.46853,-1.43808 -0.18169,-1.34068 0.69791,-2.91442 1.88514,-3.50456 1.18076,-0.5406 2.28684,0.0974 2.46853,1.43808 0.141365,1.34583 -0.69791,2.91442 -1.88514,3.50456 z "/>
<path style="fill:#b3287b" d="m 6.4821,20.0969 c 0.215353,-1.70539 0.014316,-2.07475 1.45259,-1.35187 l 1.1603,.5832 c 0.366511,-0.723046 0.942881,-1.31353 1.57802,-1.69845 l -.3088,-1.3976 c -0.424317,-1.92052 0.239363,-1.39581 1.50808,-1.39169 1.41259,-0.0014 1.71557,-0.473537 2.10093,1.35044 l .2841,1.3446 c 0.124984,0.06959 0.290071,0.145791 0.415052,0.215376 0.495263,0.228607 0.964419,0.599817 1.39347,0.964408 l .7853,-.6784 c 1.06052,-0.916231 1.17217,-0.113369 2.08926,1.2261 1.09406,1.56915 1.55236,1.68617 0.48325,2.62611 l -.8207,.7215 c 0.211746,0.573593 0.347945,1.18369 0.408599,1.83029 l 1.1603,.5832 c 1.4907,0.749223 1.09546,1.01225 0.867978,2.51819 -0.215344,1.7054 -0.01432,2.07475 -1.45259,1.35187 l -1.1603,-.5832 c -0.36651,0.723046 -0.942881,1.31353 -1.57802,1.69845 l .3088,1.3976 c 0.424319,1.92052 -0.239362,1.39581 -1.50808,1.39168 -1.41259,0.0014 -1.71557,0.473537 -2.10093,-1.35044 l -.2841,-1.3446 c -0.124982,-0.06959 -0.29007,-0.145791 -0.415052,-0.215375 -0.495265,-0.228609 -0.964421,-0.599818 -1.39347,-0.964409 l -.7853,.6784 c -0.9207,1.11161 -1.17217,0.113369 -2.08926,-1.2261 -1.09406,-1.56915 -1.55236,-1.68617 -0.48325,-2.62611 l .8207,-.7215 c -0.211744,-0.573592 -0.347944,-1.18369 -0.408599,-1.83029 l -1.1603,-.5832 c -1.4907,-0.749223 -1.09546,-1.01226 -0.867977,-2.51819 z  m 7.0014,6.0274 c 1.16028,0.583158 2.2888,-0.01418 2.51911,-1.34732 0.230312,-1.33314 -0.591455,-2.93778 -1.7564,-3.57068 -1.16028,-0.583158 -2.2888,0.01418 -2.51911,1.34733 -0.190203,1.33976 0.591455,2.93777 1.7564,3.57067 z "/>
</g>
</svg>
